<?xml version="1.0" encoding="utf-8"?>
<!-- Svg Vector Icons : http://www.onlinewebfonts.com/icon -->
<!DOCTYPE svg PUBLIC "-//W3C//DTD SVG 1.1//EN" "http://www.w3.org/Graphics/SVG/1.1/DTD/svg11.dtd">
<svg version="1.1" xmlns="http://www.w3.org/2000/svg" xmlns:xlink="http://www.w3.org/1999/xlink" x="0px" y="0px" viewBox="0 0 1000 1000" enable-background="new 0 0 1000 1000" xml:space="preserve">
<metadata> Svg Vector Icons : http://www.onlinewebfonts.com/icon </metadata>
<g><g transform="translate(0.000000,512.000000) scale(0.100000,-0.100000)"><path fill="#ff6243" d="M4530.2,5008.8c-1154.8-118.9-2188.7-608.1-3000.1-1419.5c-778.8-778.8-1243-1724.5-1406-2865.8C87.6,462.6,93.4-277.8,135.6-552.1c84.4-556.3,228.3-1018.6,464.2-1496.2c257-517.9,542.8-915,951.4-1317.8c402.8-400.9,775-663.7,1290.9-918.8c487.2-237.9,884.3-364.5,1432.9-452.7c308.8-49.9,1043.5-59.5,1329.3-19.2c585.1,84.4,1060.8,228.3,1553.8,471.9c535.2,264.7,918.8,540.9,1327.4,953.3c404.7,408.6,657.9,767.3,918.8,1292.9c241.7,489.1,391.3,982.1,471.9,1553.7c30.7,228.3,32.6,986,0,1208.5c-82.5,577.4-230.2,1064.6-471.9,1553.7c-260.9,525.6-514.1,884.3-918.8,1292.9c-765.4,773-1693.8,1241.1-2794.8,1411.8C5449,5018.4,4775.7,5035.6,4530.2,5008.8z M5696.5,2265.8c90.2-24.9,220.6-138.1,257.1-222.5c15.3-40.3,24.9-143.9,24.9-303.1v-239.8l590.8-3.8l588.9-5.7l5.7-195.7l5.8-197.6h-203.3h-201.4V-316.2c0-1327.4-3.8-1419.5-36.4-1492.4c-44.1-97.9-151.5-193.8-245.5-218.7c-99.7-28.8-2865.8-28.8-2965.5,0c-94,24.9-201.4,120.8-245.5,218.7c-32.6,72.9-36.4,165-36.4,1492.4v1413.7H3034h-203.3l5.8,197.6l5.8,195.7l590.8,5.7l588.9,3.8v235.9c0,186.1,7.7,249.4,36.4,312.7c40.3,88.2,155.4,191.8,241.7,216.8C4384.4,2290.7,5608.3,2290.7,5696.5,2265.8z"/><path d="M4405.5,1692.2v-191.8h594.6h594.6v191.8V1884h-594.6h-594.6V1692.2z"/><path d="M3619.1-273.9v-1371.5h201.4h201.4v1179.7V713.9h191.8h191.8V-465.8v-1179.7h201.4h201.4v1179.7V713.9h191.8H5192V-465.8v-1179.7h201.4h201.4v1179.7V713.9h191.8h191.8V-465.8v-1179.7h201.4h201.4v1371.5v1371.5H5000.2H3619.1V-273.9z"/></g></g>
</svg>